/* XPM */
static char *_748a434d5154e68ec10eecb4515993243Y6WbQqSaANX5Qf[] = {
/* columns rows colors chars-per-pixel */
"60 60 254 2 ",
"   c #151912",
".  c #1B1D15",
"X  c #181B18",
"o  c #13170F",
"O  c #1D221B",
"+  c #1C2316",
"@  c #23251D",
"#  c #242A1C",
"$  c #292A1C",
"%  c #2B331E",
"&  c #31391E",
"*  c #302D1E",
"=  c #1B1E21",
"-  c #1E2321",
";  c #232523",
":  c #252A22",
">  c #2A2C24",
",  c #2A2C2A",
"<  c #2C3324",
"1  c #2D342A",
"2  c #313425",
"3  c #343B24",
"4  c #33342C",
"5  c #353B2B",
"6  c #3A3C2B",
"7  c #3A3A26",
"8  c #3B3C33",
"9  c #373935",
"0  c #221F18",
"q  c #453D30",
"w  c #3C432C",
"e  c #3A4627",
"r  c #3D4333",
"t  c #3E4835",
"y  c #3F502C",
"u  c #33431F",
"i  c #42442C",
"p  c #434B2C",
"a  c #474B2B",
"s  c #44522D",
"d  c #4B562C",
"f  c #434432",
"g  c #444B33",
"h  c #4B4C34",
"j  c #44443C",
"k  c #444A3A",
"l  c #4A4C3C",
"z  c #4C4334",
"x  c #564B37",
"c  c #455332",
"v  c #4B5334",
"b  c #4C5A33",
"n  c #4C533B",
"m  c #4B573B",
"M  c #545535",
"N  c #535C35",
"B  c #53543C",
"V  c #545C3B",
"C  c #5A5D3D",
"Z  c #595638",
"A  c #515B2B",
"S  c #645C39",
"D  c #634F34",
"F  c #56652E",
"G  c #4F6134",
"H  c #536333",
"J  c #5A6535",
"K  c #5B6C36",
"L  c #55633B",
"P  c #5B643C",
"I  c #5C6B3B",
"U  c #55683A",
"Y  c #586E30",
"T  c #636C3D",
"R  c #66683A",
"E  c #63733C",
"W  c #6B7C3C",
"Q  c #66763A",
"!  c #737639",
"~  c #433C43",
"^  c #4B4C44",
"/  c #484845",
"(  c #524E47",
")  c #4D5342",
"_  c #4D5349",
"`  c #545B43",
"'  c #5A5D43",
"]  c #5B5D4C",
"[  c #565548",
"{  c #5B5C54",
"}  c #5C5C5A",
"|  c #575755",
" . c #554E52",
".. c #635B46",
"X. c #615C57",
"o. c #6B4D47",
"O. c #5B6443",
"+. c #5B6546",
"@. c #5D6254",
"#. c #5E7046",
"$. c #636443",
"%. c #636C43",
"&. c #676849",
"*. c #746848",
"=. c #647244",
"-. c #6B7A44",
";. c #6B744B",
":. c #6B7847",
">. c #737C44",
",. c #767949",
"<. c #626455",
"1. c #646B54",
"2. c #696B54",
"3. c #64645A",
"4. c #6B6C5C",
"5. c #68665A",
"6. c #6C7453",
"7. c #6A7458",
"8. c #727354",
"9. c #767A58",
"0. c #726C56",
"q. c #595C64",
"w. c #5E5C72",
"e. c #5E6165",
"r. c #646562",
"t. c #6C6C65",
"y. c #6B6C6C",
"u. c #676666",
"i. c #726D67",
"p. c #6D7264",
"a. c #6C716C",
"s. c #727464",
"d. c #74746B",
"f. c #7B7B6C",
"g. c #777968",
"h. c #6A6A75",
"j. c #737373",
"k. c #767B73",
"l. c #7B7C74",
"z. c #7D7D7B",
"x. c #76757B",
"c. c #707076",
"v. c #857A4F",
"b. c #837D69",
"n. c #817D73",
"m. c #807F7D",
"M. c #9B7B66",
"N. c #74873A",
"B. c #6E833B",
"V. c #6B8344",
"C. c #74844B",
"Z. c #7B8B4B",
"A. c #788746",
"S. c #7C9649",
"D. c #758252",
"F. c #7D8C53",
"G. c #7B8556",
"H. c #7D9154",
"J. c #7C8466",
"K. c #7D8276",
"L. c #779F60",
"P. c #7FAA4E",
"I. c #809A3F",
"U. c #838A4B",
"Y. c #83954D",
"T. c #869849",
"R. c #838956",
"E. c #879758",
"W. c #93995A",
"Q. c #96924D",
"!. c #93A54D",
"~. c #8BA557",
"^. c #94A658",
"/. c #92AC52",
"(. c #A2B55A",
"). c #858968",
"_. c #8B9767",
"`. c #969965",
"'. c #828475",
"]. c #84847C",
"[. c #8B8C7D",
"{. c #888978",
"}. c #8C9479",
"|. c #969677",
" X c #938B77",
".X c #99A665",
"XX c #9CA778",
"oX c #95AE66",
"OX c #A6B66D",
"+X c #A5AE73",
"@X c #ADC66B",
"#X c #A4C059",
"$X c #C6CE79",
"%X c #7B7A84",
"&X c #7F7E90",
"*X c #817F87",
"=X c #7E8381",
"-X c #838383",
";X c #8B8B83",
":X c #8C8C8A",
">X c #878587",
",X c #928E87",
"<X c #8E9287",
"1X c #939485",
"2X c #9A9C85",
"3X c #94958C",
"4X c #969A8A",
"5X c #9B9C8C",
"6X c #969886",
"7X c #8B8B93",
"8X c #9B9D93",
"9X c #979795",
"0X c #909094",
"qX c #A39D98",
"wX c #A39B8B",
"eX c #9EA18D",
"rX c #9AA783",
"tX c #9FA194",
"yX c #9EA29B",
"uX c #A3A78D",
"iX c #A3A494",
"pX c #A3A49B",
"aX c #AAAB9C",
"sX c #A6A998",
"dX c #ADB19B",
"fX c #B2B49C",
"gX c #B3B18C",
"hX c #9A9AA3",
"jX c #A49EA3",
"kX c #A4A5A3",
"lX c #ABABA3",
"zX c #A9A9A7",
"xX c #AEB2A7",
"cX c #B3B4A4",
"vX c #B3B4AA",
"bX c #B9B9A8",
"nX c #BCBDB4",
"mX c #BBBBBA",
"MX c #AEAEAE",
"NX c #9AA3A0",
"BX c #C2BEB6",
"VX c #CAB9AF",
"CX c #BDC2B3",
"ZX c #BDC6A7",
"AX c #BCC592",
"SX c #C9D197",
"DX c #C5C7B8",
"FX c #CFD1B3",
"GX c #B8BCC0",
"HX c #BEC2C5",
"JX c #C8C8C8",
"KX c #D6D1CE",
"LX c #E4DBD9",
"PX c #E4E0DE",
/* pixels */
".XA.rX8XhX>XK mX<Xl 6X8XZXmXMXl.kXkXlX9XyX}.z.3XSXGXkXPXPXJXO.v ) K.r l < t f k , 9 k , ; ; 9 $.P g 7.E P =.O.6., ;Xk.d.",
"~.A.e.6.pX}.I OX$.$.XXs.T.9X3X-X].>XpXqX3X8X;X-X:.t.k.f.+.+.m r : m I 8.}.<.).pX3.s.C.H.E.(.W.8.C 5 f.O.=.E O.` 4 r. .8 ",
".X+Xp.7.XXc F.`.D.@ D.C.,.uX9X].].5X[.:X>X;X:X].6.A.O.9.;.g 9 G E.G.DXDXJXJXJXmXnX+.J.~.OXs.N.^.b r }.].#.$.;., : j.y._ ",
"H E.G.F s A..X@X.X{.:.3 3.8.8X>X3X].k.].z.-Xz.].).>.T T.B ) Y.2Xt.JXMXCXaXbX<XvXxXpXL ;.+.4XB.A.v O 4 C.A.=.t O e 0X0X%X",
"g k.{ U.A.;.8 ,.R.g.E.OX+X5 ] ^ ].l.[.lXl.8X].>X9XT L N h O.H.5X:XlX8X3X8X1X3XtXcXkXJ.b OX;.Z.U.v c 8 g z l ; = l 7X*X9X",
"@ ;..Xd >.).4. X).3.c ^.fXFXqXj 4 : ) @.m.;X:Xz.f.O.p *.5.D.O.].-X8XpX[.aXiX1XeXbXiX8X] 6.&.Y.OXV p v 1.4.,.;.; 9 t.8X-X",
"6 d ! V ] 1X1.f.n.n.m W $XLXFX'.|.|.{ 9 X < ` 8.x < : [ C.E.iX].y.8XpX;X].pXsXfXeX5X4X3Xg.).Z.R.g %.2.5.t.>.I E.1 ] ;X].",
"J & A 9.2Xf.JXJXeXi.2.:.W.SXSXbXSX;.,.G.,.[ < &.h h k ` }.3XcX;X-XiXtX3X5XiX[.5XaXtX1XiXiX].z.&.V Q J.-X7.P ' E.L 4 / n ",
"A E >.C.1XMXaXiXpXnXlX].W.@XXX9.AX).b.R.' 2X&.b.8.8.[ 3.3XqXpX8X%X;X8X3X>X3X5XsXdX4X5X1XsX3X].n B =.).-X;X9.4.8.Q I T h ",
"N J O.gX|.fXaXcX}.dXcX1XG.J.aXR.+XFX].&.qX{.|.v.,.C f.d.;XlXsX3Xz.3Xk.].-X[.eXiX5XsX2X1X8XCXkXw &.U.iX3X8X6.g.B.Q Z.p 2 ",
".XW D.,.{.5XuXcXpXcXbXsXJ.pXjXO.gXmXBXJXJX_.R.,.;.O.f.'.'.3XaX].z.x.:Xz.-X3X1X6X2X5X5X1X5XtX[.v ,.Z.p.].,XJ.g.G.Y `.|.$.",
"F U.9.6.R._.2XfXaXbXDXbXpXlX3X:X8XbXBXKXJX XgXi.>.`.{.6Xl.3XtX1X-X-X:X:Xx.3XeXiX5Xn.[.8XdX5X9.g ^ 6.t.>X[.m 7.G.Y R.: f ",
"J F ).f.;X6X[.}.iXlXbX5XsX[.a.8XnXDXDXBXDX8X>Xr.v.9.i.f.;XsX1X9Xc.%X=X-X;X[.cXfX;X'.1X[.pXf._.h c.j.].z.:X1.{.D.^.l n.aX",
"A.! |.9.R 9.f.'.[.j.2XuXsX>XiXz.cXlXvXsXiXxXaX{.,.OXf.'.2XeXsXa.c.c.j.h.>X].[.iX2XaX2X3X].3XR.9.G.G.].z.l.i.g Q <.zXKXJX",
"Y >.).2X).W.s.'.y.r.[.iXiX'.l.8XDXvXlXnXcXxXlXf.XXO.n.{.s.k.aXr.q.h.h.q.=X>X3XiX6X1X3X8X;X[.K T ).;Xl.y.] W s B.f.;XlXvX",
"N.9.6X8.fXj.u.'.} s.n.1XcX8Xk.DXDXBXnXvXBX7Xh.2X_.W.f.6X2.{.{.].u.q.q.x.q.z.].5X2XfX[.sX6Xn.< ] A.t.4.v > B |.fXuX8X9XaX",
"v ZXsXQ.cXl.X.f.<.n.s.[.[.s.{ bX;X'.d.3X5Xr.].v.`.R.1X6Xg.d.5Xk.u.e.h.h.u.a.2X6X[.iX].;X3X].J &.b.<.; ,._.XXbXnXvXaX8XiX",
"G.fXG.'.k.f.{ t.<.d.s.}.dX1.[ 8 <.].l.j.q.x.$.B &.g 5.}.6X[.1Xk.e.q.q.q.j.].1X5X}.'.6X1X;X{.A.A.B.J $.N |.5XbXbXbXaXxXaX",
"H.o [   & ..a % J g._.4.}.d.n 3.n ] i.:X{.z.f.D.f *.5.6.s.).4.0.^ _ | / ^ X.r.p.>X{.[.[.;Xr.3 2 ' '.f.pXpX3XcXaXcXsXpXiX",
"@X~.1.@   o + . w   + y % 5 4 ; , O ;       @ O _ R x > 5 4 : 1 , ; O ; @ . O X ; > ; ; > l  X1.lX4X6XdXvXvXdXnXxXbXqXqX",
"3.>.v.` B * S i 3 $   o [ ^ 4.>Xc.y.>Xu.x.] O.g < ] ) u.'.t.r.{ ) 5 r m m O.^ 4 k f 4 4 8 9.9.].iX5Xd.pXaXcXcXDXbXcX9XqX",
"kXMX9XR.|.>  XJXbX&.& . [.eXqX9Xh.>X7XzXzX9X^ q m : %X%X&Xw.&X%Xr.' x.pXJXf.pXkXhX:X9.z O g.8X;Xf.[.3X].3X'.9XfXcXaX9X,X",
"K.pXm.|.MXv.j KXKXDX8.B aXcX>XqXMXjX*XjXhX0X<.f K 9.< , x.h.h.| v _ { k.yXmXDXvX4X7XhXX.O ; qX8X'.:X} ].;X{.f.cXdXiX>X9X",
"uXlXkXp.zX*.7 FXPXLXV l bXlX%XzXx.>X%X*X7XpX/ v +.XXDX1 ; u.u._ @.x.y.x.4Xk.8X9XkX7Xu.XX1 O ( {.1Xu.].r.l.;X( cXlX[.u.u.",
"cXpXFXaXxX0Xi KXLXPX3.).DXbXx.>X>X%X9X%XmX7XX.O._.DXKXHX^ 9 j.n kXMX4Xa.k.[.2XtXj.-XJ.R.,.< X [.5X1Xx.n.1Xt.( n.[.| } } ",
"bXfXFXCXlX4.7 VXKXBX+.| nXDX;X0X:X>Xc.u.z.u.@ w sXDXLXKXJX:XK.} k.NXd.].l.-X4XK.lXhX7.V &.m X ^ s.g.X.| { [ / ^ [ | | | ",
"sXDXJXZXcXt.' gXwXLX<.. . B ' j.j.3.} r.y.3.> @.E.1.DX4XyXJXj.1 _ r.r.eX{ K.K.1Xy.} .XY.v J.- X 4.}. ./ | j / 8 > ; ; , ",
") iXsXZXbX&.. `.wXn.&.z ).3X'.3X).{.D.' z l @  XZXsXvXDX%XxXkXK.< @.p.0X:Xk.iXr.u.r.R.E.Z.Y.[ < = j 8 ; > 9 ( g.{.d.<.1 ",
"n k 3X:X9.* > & ..i $.bXDXtXaXtXDXmXmXJXDX$.w f m ) 1XzXmXhXKXJX4X# / / r.t.].:Xu.c.O.E >.M '.x o.; , 8 n.,X3X5X}.l.i.,X",
"! R 1.2.f f 8 $ z S ).6XbXvXbX1XmXJXHX<X}.C.g }.l 6X7.;X} j.KX9XkXbX> / / q.%Xt.y.-XC J.{ XX5X..R 9 k 3.9XiXbXvXmX*XhXxX",
"J v V w * z ' J _.lX<.lXmXCXcXbXaXxXxX8XuX9.h E.` }.z.:X} j y.8XHXHXGX> g q.yX7X%X:X9.uX6X[.l.K...S 5.9 / f.1XuXdXkXl.3X",
"D   : : o.# 9.g.[.sXaX4XxXDXcXcXuX8X1X0XpXD.p 1X}.dX].>Xy.y.k.[.4XCXkX0X4 r 3.:X| t ` l w 4 V 5 q [ i.9 | i.{.2X2X3Xk.d.",
"4.a v A e $ &.bXs.8X1XDXlXd.tXsXn [.%.1X<X%.L g.rXeXk.9XhXz.x.K.5XvXxX9X8.# f r t 5 : > @ 7 M &.5.-Xj.9 4.t.7.^ f.[.y.6X",
",.Z ).T R # 6 _.[.9.sXdXpXlXaXdX3XuXsXK.) J w A _.2X7Xy.{ r.t.3X<XdX4Xp.<XN @ =.F.C.Z.$.%.R.N 3.r.| d.9 r { 4.4.@.3.4.^ ",
",.R A.XX,.C : 4.lXd.cXcXbX8XpXaX+.+.) K.d.Z.3 e K.1X1.d.} _ } pXtXeX4X;XC.Z A _.F.V d 7 O.7 ) ) { 3.d.; 9 [ k / , , 9 {.",
"*.v.F.T.T.S > f C [.fX6XpX5X'.;X1X2.;.R L T O 5 J.9.3.r.u.} _ p.p.1X3XDX'.f w .X1.[ d i h B <.] { u.` , ; = X , 9 / j.].",
"W.E.W..XA.G.x . 2 O.<.uX8X} u.} 3.j +._ 1.a 5 1 / 1 4 j r.@.^ v 7.] 6X].7Xj $ J.` T i @.[ C `.] 9.5 @.p.} _ } } %X>X7X-X",
".Xt.G.A.*.0.[ ` # v f p 3 < > / @ > < 1.5 4 f > f : . O : : 7 e l 6 M k 4 3 3 r.O.w V v ' 1.1.] e 4.mX<X_ 5XuXr.} z.lXbX",
"E.,.D.Z.R.2.0.8.*.6 # * : , 5 9.3X) h 9.iXE.}.Y.F.$...h x i . 0 5 P :.T A.N.& v [ n ' r g ' } x R 9XaXsX_ '.5Xk.y.i.aXpX",
",.,.;.~.2.p.9.,.8.,.B < f ^ :.T D.^.v.^.gX X1X6X,.U.,.&.*.v.6 i b 3 n j g C.w 8 r.f M x O...z q +.8Xy.CX] l.aX1Xy.t.0XqX",
"$.Z.N R &.2.&.B 8 N p 3 5 > ;.R A.T.#X^.@XfX`..X).!.I.>.!.U.> # @ > $ 8 i $ T . k k V x g 7 B  Xp.[.1X1X/ 5.xX8XK.n.[ [ ",
"P d >.B P -.{ 4.] G.$.T 7.j d T K !.!.T.Q (.OXrXXX(./.!.Q ,.V 7 $.Z 0.gXM.Q.U.Z . f i p e 5 n 4.3.4.8X<X6.l.aXk.u.).C..X",
"e.h M Z Q N Z &.&.V O.M M >.:.O.Y.E.A.W.#X(.W E.T.E.^.E R N M 3 p %.Z.2.Q.A.Y.Z.S > 7 7 i B ] K./ -XK.{.c } ].%Xl.J ! J ",
"v l x [ J O.i 9.B v.S SXp T '.].C.S.W (.Y.OX/.A.%.U.E ^.J Z ,.5 i I J.).}._.).G.C.*.2 P p K s._ 3.4.8X1Xb f.-X].J.p M h ",
"z h C N I v P ,.O.,._.D.+.N 2.O.H L T.,._._.W.C.W Z.>.!.A.S.R.a I 9 -.i 4.@.F.$.C.T.[ T P R d.j c ` V +.@.6.d.] ;.f 8 ..",
"i $.C n <.&.;.0.J P p o v p h L C c V.A.T.Y.U.E S.p =.B.R E .XK K 8 s N d G V i L W S.a V J ^ _ r 6 E n _ ) { g i C P iX",
"Z &.i T J $.&.&.d :.A + + % e s %.m E h G.N B.Y.E s h ,./.^.OXK A.' H I 3 ` l h A C.E J T * < < 5 n 6 =.V w k ' h T :.).",
"I :.E a J N 2.' =.R K # 3 e s A :.3 E V 3 3 T =.S.S.>.T T.T.~.K E L E N d b v A.g Q B.s V.C.p + % w < v H b 7 h v >.E 2.",
"b D.-.T H b &.C C T L b . 3 H u I v N 8 h b N.:.:.W :.Y.Z.A.^.I c v I O.P a p a -.L E ,.d C.N +   . b w p v 2 : @ v $.k ",
"K E.C E K H L h ;.Z G d O + % s e ;.b 3 Q p & J A.L e F.^.E.E.e v p p N v Q 3 3 -.P H C.F.@Xc 3 3 O % f 3 # w 4 : w ' l ",
"~.OXa L V.H E T l a %.w e   + + $ =.C.p U s % 3 e # s a Z.$.C.< h P I e H b V T E Q N a N a 9.s V Q I -.&.C *.^ < < w 2 ",
"/.W.L v e i 3 E.4 3 a J P 2 .   . e e V.b e g 2 < < < D.w Y.oXs w V e % # < c I I d v w c -.A.:.W E I -.OX6.$.8.' 5 g ' ",
"S..XA.R.c + e N ;.M J C.I n + +   + # e V c < y w g p =.5 b ~.P.s g @ # O     2   < g ` S.C.-.T.I -.B N O.F.n J -.< < v ",
"T.oXrXC.9.% w 8.R.P -.T./.&.6 w : . 5 : g c C.< V r # w +.H.H./.D.F.[ 8 # q @ # w L J H C.Z.Q W.J e w K I C.` V :.t 5 w ",
"oX^.A W.N s w N =.%.;.Y.~.,.I v l 8 ` F..X)..XE.oXE.~.Y.m I R.OX@XS.%.9.B 0.3 B g m t ; 9.I N N s w p e L :.+._.;.;.> 5 ",
"T.Y.b Z.V B f $.V.W E F E C.+.9.Y.~.A.~.!./.~.~.Y.S.E.V.=.) S.S.E.C.F.~.A.O.N m B U ^ 9 b J @ i w v 2 4 w 2 =.9.D.%.Z > ",
"O..XC.E.{ ` &.9.E.S.D.Q ^.C.-.-.C.Q K V.K S.E.V _.6.H.C.~.g U =.XXW 9.W.#XF.=.O.g =.) / [ V / 4 i n 5 h 5 O h O.,.I w : ",
"J E.$.%.] / $.N v N OXI Z.V.=.G U =.I s s :.C.P C.F.6.6.C.b w h 5 L D.S.~.I G =.-.D./ k r $. .4 c O.5 y v 5 5 2 h l n ` ",
"a b E ) ] 3.V #.h ; V O.O.c L C.L L 5 y @ w v 7.n ` @._ O.O.c m r r f -.H.# w #.#.E. ./ , g } ~ 4 %.r r j , w m m L m r ",
"O.C.H ] { [ 2.6.f j 6 k 4 : m t c b 5 # 2 j 8 &.5.[ { ( [ ` | / ( 9 h =.@.> , 4 O.[ X. .x 9 9 / 8 r 1 4 / 9 8 / 8 9 j / "
};
